<?xml version="1.0" encoding="UTF-8"?><svg xmlns="http://www.w3.org/2000/svg" viewBox="0 0 142.67 26.24" width="100%" height="100%"><defs><style>.cls-1{fill:#fff;}</style></defs><title>OANDA_WHITE</title><g id="Layer_2" data-name="Layer 2"><g id="Layer_1-2" data-name="Layer 1"><polygon class="cls-1" points="80.92 2.08 83.29 2.08 96.24 20.89 96.3 20.89 96.3 2.08 98.42 2.08 98.42 24.32 96.05 24.32 83.1 5.51 83.04 5.51 83.04 24.32 80.92 24.32 80.92 2.08"/><path class="cls-1" d="M77.47,24.32h2.27L71,2.08H68.66l-9,22.24H62l1.91-4.89h11.7Zm-12.9-6.69L69.75,4.4l5.12,13.23Z"/><path class="cls-1" d="M48.91,1.56c-6.65,0-11.29,5.17-11.29,11.56A11.21,11.21,0,0,0,48.91,24.68c6.7,0,11.33-5.18,11.33-11.56A11.24,11.24,0,0,0,48.91,1.56m0,21.19a9.33,9.33,0,0,1-9.4-9.63,9.43,9.43,0,1,1,18.85,0,9.32,9.32,0,0,1-9.45,9.63"/><path class="cls-1" d="M101.32,2.08h7.09a11.19,11.19,0,0,1,11.16,11.49,10.79,10.79,0,0,1-11.16,10.75h-7.09Zm2.12,20.31h4.85a8.89,8.89,0,0,0,9.28-9c0-4.66-3-9.44-9.28-9.44h-4.85Z"/><path class="cls-1" d="M140.13,24.32h2.54L124,2.08h-2.16V24.32H124V19.44H136ZM124,17.63V5.31h.21l10.37,12.32Z"/><path class="cls-1" d="M9.33,25.68A13.1,13.1,0,0,0,20.52,24L9.33,10.61Z"/><path class="cls-1" d="M0,13.12A13.08,13.08,0,0,0,3.75,22.3V3.94A13,13,0,0,0,0,13.12"/><path class="cls-1" d="M9.33,2.09,24.32,20A13.12,13.12,0,0,0,6,2.08h3.3Z"/></g></g></svg>